<svg xmlns="http://www.w3.org/2000/svg" width="1000" height="1000" viewBox="0 0 1000 1000"><path d="M720.7-885.3h85.5c15.2 0 27.7-12.4 27.7-27.6v-85.3c0-15.2-12.5-27.6-27.7-27.6h-85.5c-15.2 0-27.7 12.4-27.7 27.6v85.3c0 15.2 12.5 27.6 27.7 27.6z"/><path d="M0-1174.6v1000h1000v-1000H0zm93.7 750.5v-323.6h197.1c-14.4 30.4-22.5 64.4-22.5 100.2 0 130.1 106.2 235.9 236.7 235.9s236.7-105.8 236.7-235.9c0-35.8-8.1-69.8-22.5-100.2h186.9v323.6c0 86.2-70.4 156.4-156.9 156.4H250.6c-86.5 0-156.9-70.2-156.9-156.4zm655.7-657.5c86.5 0 156.9 70.1 156.9 156.4v85.5H642.1c-38.7-27.5-86-43.7-137-43.7s-98.3 16.2-137 43.7H93.7v-85.5c0-86.2 70.4-156.4 156.9-156.4h498.8zm-146 434.1c0 54-44.1 97.9-98.3 97.9-54.2 0-98.3-43.9-98.3-97.9 0-54 44.1-97.9 98.3-97.9 54.2 0 98.3 43.9 98.3 97.9zM0 0v1000h1000V0H0zm298.5 843.4c0 8.1-2.4 10.6-10.5 10.6-42.8-.3-85.5-.1-128.3-.2-12.7 0-12.8-.2-12.8-12.6v-457c0-11.2 0-11.2 11-11.2 43.3 0 86.6.1 129.9-.1 7.8-.1 10.7 2 10.7 10.3-.2 153.4-.2 306.8 0 460.2zm-76.1-532.5c-48.8 0-87.2-38.6-87.1-87.6.1-48.5 38.9-86.8 88.1-86.7 48.3.1 86.3 39.1 86.2 88.5-.1 47.5-39 85.8-87.2 85.8zM843.2 854c-43.6-.3-87.1-.1-130.7-.1-10.2 0-10.5-.3-10.5-11.1 0-80.7.4-161.4-.3-242.2-.2-18.8-2.5-37.9-7-56.2-6.5-26.8-23.9-44.3-52.5-48.1-24.8-3.4-48.7-1.2-69.4 14.4-18.5 13.9-26.2 34.2-29.7 55.9-2.5 15.5-4.1 31.3-4.1 47-.4 76.7-.3 153.4 0 230.1 0 8.3-2.5 10.4-10.4 10.3-43-.3-86.1-.1-129.1-.2-11 0-11-.1-11-11.3V383.8c0-10.8 0-10.9 10.4-10.9 41.2 0 82.3.2 123.5-.2 8-.1 10.7 2.1 10.4 10.4-.7 17.6-.2 35.3-.2 55.3 26.6-43 63.9-67.5 111.1-74.1 53.4-7.6 105.2-2.4 149.7 32.6 24.9 19.6 38.4 46.7 46.9 76.5 10.3 36 12.9 73 13 110.1.1 86.6-.1 173.2.2 259.8.2 8.4-2.3 10.8-10.3 10.7zm733.6-1496.2c-12.4-4.3-25.3-5.3-38.4-5.3h-118.2V-510c1 .1 1.9.1 2.8.1h113.9c17.8 0 35-2.5 51-11 12.8-6.9 22.2-16.9 27-30.7 5.1-14.7 4.9-29.8 1.9-44.8-4.7-22.9-18-38.2-40-45.8z"/><path d="M1216-1174.6v1000h1000v-1000H1216zm645.9 296h186.6v45.3h-186.6v-45.3zm-140 354.8c-6.8 22.8-19.5 41.9-37.7 57.2-21.6 18.2-46.9 28.6-74.1 34.9-20.4 4.8-41 7-61.9 7h-238.1v-500h234.1c24.4 0 48.6 1.8 72.4 8 17.4 4.5 33.9 11.2 48.4 22 18.9 14.1 30.9 32.7 36.3 55.6 4.5 19.3 5.1 38.7 2.4 58.3-3.1 22.4-12.4 41.8-28.3 58-8.9 9-19.1 16.2-30.3 22-2.4 1.3-4.9 2.5-7.2 3.7 7.7 3.2 15.5 6 22.8 9.8 34.9 17.7 56.6 45.8 64.4 84.3 5.5 26.7 4.6 53.2-3.2 79.2zm399.6-71.8c0 .6-.1 1.2-.2 2.3h-240.4c0 3.7-.2 7.2 0 10.6.9 13.1 3.7 25.6 9.8 37.4 9 17.4 23.3 28.2 41.9 33.2 17.2 4.6 34.6 5.6 51.8.9 20.7-5.6 37.1-17.4 48-36 2.2-3.7 4.1-4.7 8.1-4.7 23.7.2 47.4.1 71.2.1h3.7c-.8 2.5-1.6 4.8-2.4 7-7.2 20.5-17 39.6-31.2 56.1-19.6 22.7-44.5 36.6-73.4 43.5-25 5.9-50.3 7.1-75.7 3.4-26-3.8-50.5-11.5-72.9-25.5-25.4-15.9-44.3-37.6-56-65.2-13.6-31.8-17.5-65.1-14.4-99.3 2.5-28.3 10.5-55.2 24.5-80 21.3-37.8 52.7-62.7 94.8-73.7 21.5-5.6 43.3-7 65.5-5.6 15.5 1 30.5 3.9 45.2 9.1 27.2 9.7 49.3 26.3 66.3 49.6 16.3 22.4 25.9 47.7 31.3 74.7 4.1 20.5 5.6 41.2 4.5 62.1z"/><path d="M1530.1-722.7c10.3 0 20.5-1.1 30.3-4.5 18-6.1 30.7-17.6 35.8-36.3 3.2-11.6 3.2-23.4.6-35.1-2.7-12.1-8.9-22-19.2-29-7.7-5.3-16.3-8.3-25.4-10.1-10.2-2-20.6-1.9-31-1.8-32.5.1-64.9 0-97.4 0h-3.6v116.7h2.9c35.6.1 71.3.1 107 .1zm460.9 6.6c-10.8-4.6-22.1-6.3-33.8-6.3-10.4 0-20.8.7-30.5 4.7-24 9.7-38.9 27.2-44 52.8-.9 4.5-1.6 9.1-2.3 13.8h149c.1-.4.2-.7.2-.9-1.4-14.8-5.4-28.8-13.3-41.6-6.2-10.1-14.3-17.9-25.3-22.5z"/></svg>