<svg xmlns="http://www.w3.org/2000/svg" id="Layer_1" width="1000" height="1000" viewBox="0 0 1000 1000"><path d="M360.8 532.4c-12.4-4.3-25.3-5.3-38.4-5.3H204.1v137.5h116.7c17.8 0 35-2.5 51-11 12.8-6.9 22.2-16.9 27-30.7s4.9-29.8 1.9-44.8c-4.6-22.7-17.9-38-39.9-45.7z"/><path d="M0 0v1000h1000V0zm645.9 296h186.6v45.3H645.9zm-140 354.9a117.2 117.2 0 0 1-37.7 57.2c-21.6 18.2-46.9 28.6-74.1 34.9a271.1 271.1 0 0 1-61.9 7H94.1V250h234.1c24.4 0 48.6 1.8 72.4 8 17.4 4.5 33.9 11.2 48.4 22 18.9 14.1 30.9 32.7 36.3 55.6a157.6 157.6 0 0 1 2.4 58.3c-3.1 22.4-12.4 41.8-28.3 58a120.5 120.5 0 0 1-30.3 22l-7.2 3.7c7.7 3.2 15.5 6 22.8 9.8 34.9 17.7 56.6 45.8 64.4 84.3a161.1 161.1 0 0 1-3.2 79.2zM905.5 579c0 .6-.1 1.2-.2 2.3H665c0 3.7-.2 7.2 0 10.6.9 13.1 3.7 25.6 9.8 37.4 9 17.4 23.3 28.2 41.9 33.2 17.2 4.6 34.6 5.6 51.8.9 20.7-5.6 37.1-17.4 48-36 2.2-3.7 4.1-4.7 8.1-4.7 23.7.2 47.4.1 71.2.1h3.7l-2.4 7c-7.2 20.5-17 39.6-31.2 56.1-19.6 22.7-44.5 36.6-73.4 43.5a201.4 201.4 0 0 1-75.7 3.4c-26-3.8-50.5-11.5-72.9-25.5-25.4-15.9-44.3-37.6-56-65.2-13.6-31.8-17.5-65.1-14.4-99.3a197.4 197.4 0 0 1 24.5-80c21.3-37.8 52.7-62.7 94.8-73.7 21.5-5.6 43.3-7 65.5-5.6a166.7 166.7 0 0 1 45.2 9.1 137.1 137.1 0 0 1 66.3 49.6c16.3 22.4 25.9 47.7 31.3 74.7a249.8 249.8 0 0 1 4.4 62.1z"/><path d="M314.1 452c10.3 0 20.5-1.1 30.3-4.5 18-6.1 30.7-17.6 35.8-36.3a71.9 71.9 0 0 0 .6-35.1c-2.7-12.1-8.9-22-19.2-29-7.7-5.3-16.3-8.3-25.4-10.1s-20.6-1.9-31-1.8h-101V452h110zm460.9 6.5c-10.8-4.6-22.1-6.3-33.8-6.3s-20.8.7-30.5 4.7c-24 9.7-38.9 27.2-44 52.8-.9 4.5-1.6 9.1-2.3 13.8h149a4 4 0 0 0 .2-.9c-1.4-14.8-5.4-28.8-13.3-41.6-6.2-10-14.3-17.8-25.3-22.5z"/></svg>