<svg xmlns="http://www.w3.org/2000/svg" id="Layer_1" width="1000" height="1000" viewBox="0 0 1000 1000"><path d="M720.7 289.3h85.5a27.7 27.7 0 0 0 27.7-27.6v-85.2a27.7 27.7 0 0 0-27.7-27.6h-85.5a27.7 27.7 0 0 0-27.7 27.6v85.3a27.7 27.7 0 0 0 27.7 27.5z"/><path d="M0 0v1000h1000V0zm93.7 750.6V426.9h197.2a233.8 233.8 0 0 0-22.5 100.2c0 130.1 106.2 235.9 236.7 235.9s236.7-105.8 236.7-235.9a233.8 233.8 0 0 0-22.5-100.2h187v323.7c0 86.2-70.4 156.4-156.9 156.4H250.6c-86.5-.1-156.9-70.2-156.9-156.4zM749.4 93.1c86.5 0 156.9 70.1 156.9 156.4V335H642.1a236.5 236.5 0 0 0-273.9 0H93.7v-85.6C93.7 163.2 164.1 93 250.6 93zm-146 434c0 54-44.1 97.9-98.3 97.9s-98.3-43.9-98.3-97.9c0-54 44.1-97.9 98.3-97.9s98.3 43.9 98.3 97.9z"/></svg>