<svg xmlns="http://www.w3.org/2000/svg" viewBox="0 0 1000 1000" width="1000" height="1000"><path d="M906.8 499.9c0 58 .7 116-.2 174-1 68.1-27.6 125.4-77.6 171.6-28.5 26.3-61.8 44-99.3 53.8-18.3 4.8-37 7.5-56 7.5-115.8.1-231.6.4-347.4-.1-53.9-.2-102.3-17.9-144.3-51.7-47.7-38.4-76.5-88.2-86.2-148.7-1.9-11.9-2.6-24.1-2.7-36.1-.2-113.5-.1-226.9-.1-340.3 0-94.5 55.4-179.2 141.9-217.2C265.4 99.3 297.3 93 330.6 93c114.8.1 229.5-.4 344.3.2 52.2.3 99.3 17.4 140.4 49.6 45.8 35.9 74.8 82.5 86.8 139.6 3.3 15.9 4.7 31.9 4.7 48.2v169.3zM500 155.7H331.3c-19.2 0-38 2.5-56.3 8.5-71 23.3-119.2 89-119.3 163.6-.2 115-.1 229.9 0 344.9 0 17.1 2.7 33.8 7.9 50.2 22.9 72.6 89.4 121.4 165.6 121.4 112.4.1 224.7 0 337.1 0 5.8 0 11.7-.1 17.5-.5 29.6-2.1 57.1-10.9 81.7-27.5 51.8-35 78.5-84.2 78.7-146.8.5-113.1.1-226.2.1-339.2 0-12.5-1.2-24.8-3.7-37-16-78.9-87.2-137.4-167.7-137.5-57.8-.1-115.3-.1-172.9-.1z"/><path d="M719 500.1c-.1 120.8-98.7 219.1-219.7 219-120.2-.1-218.6-98.8-218.5-219.2 0-121.1 99.7-220.8 222.5-218.9 118.6 1.7 215.6 99.1 215.7 219.1zm-62.6-.1c0-86.1-69.6-156.1-154.9-156.6-87.5-.5-158.1 69.4-158.1 156.6 0 86.7 69.8 156.5 156.5 156.5S656.4 586.7 656.4 500zm94-281.7c17.2 0 31.2 14.1 31.1 31.3 0 17.2-14.1 31.2-31.3 31.2-17.3 0-31.4-14.2-31.3-31.5.2-17.1 14.2-31 31.5-31z"/></svg>