<svg xmlns="http://www.w3.org/2000/svg" viewBox="0 0 1000 1000" width="1000" height="1000"><path d="M250.6 907h498.8c86.5 0 156.9-70.2 156.9-156.4V426.9h-187c14.8 31.3 22.5 65.5 22.5 100.2 0 130.1-106.2 235.9-236.7 235.9S268.4 657.2 268.4 527.1c0-34.7 7.7-68.9 22.5-100.2H93.7v323.7c0 86.2 70.4 156.3 156.9 156.4z"/><path d="M406.8 527.1c0 54 44.1 97.9 98.3 97.9s98.3-43.9 98.3-97.9-44.1-97.9-98.3-97.9c-54.2 0-98.3 43.9-98.3 97.9zM642.1 335h264.2v-85.5c0-86.3-70.4-156.4-156.9-156.4L250.6 93c-86.5 0-156.9 70.2-156.9 156.4V335h274.5c82-58.2 191.9-58.2 273.9 0zM693 176.5c.1-15.3 12.4-27.6 27.7-27.6h85.5c15.3 0 27.6 12.3 27.7 27.6v85.2c-.1 15.3-12.4 27.6-27.7 27.6h-85.5c-15.2 0-27.6-12.3-27.7-27.5v-85.3z"/></svg>