<svg xmlns="http://www.w3.org/2000/svg" id="Layer_1" width="1000" height="1000" viewBox="0 0 1000 1000"><path d="M0 0v1000h1000V0zm298.5 843.4c0 8.1-2.4 10.6-10.5 10.6-42.8-.3-85.5-.1-128.3-.2-12.7 0-12.8-.2-12.8-12.6v-457c0-11.2 0-11.2 11-11.2 43.3 0 86.6.1 129.9-.1 7.8-.1 10.7 2 10.7 10.3q-.3 230.1 0 460.2zm-76.1-532.5c-48.8 0-87.2-38.6-87.1-87.6s38.9-86.8 88.1-86.7 86.3 39.1 86.2 88.5c-.1 47.5-39 85.8-87.2 85.8zM843.2 854c-43.6-.3-87.1-.1-130.7-.1-10.2 0-10.5-.3-10.5-11.1 0-80.7.4-161.4-.3-242.2a248.5 248.5 0 0 0-7-56.2c-6.5-26.8-23.9-44.3-52.5-48.1-24.8-3.4-48.7-1.2-69.4 14.4-18.5 13.9-26.2 34.2-29.7 55.9a303.7 303.7 0 0 0-4.1 47q-.6 115.1 0 230.1c0 8.3-2.5 10.4-10.4 10.3-43-.3-86.1-.1-129.1-.2-11 0-11-.1-11-11.3V383.8c0-10.8 0-10.9 10.4-10.9 41.2 0 82.3.2 123.5-.2 8-.1 10.7 2.1 10.4 10.4-.7 17.6-.2 35.3-.2 55.3 26.6-43 63.9-67.5 111.1-74.1 53.5-7.5 105.3-2.3 149.8 32.7 24.9 19.6 38.4 46.7 46.9 76.5 10.3 36 12.9 73 13 110.1.1 86.6-.1 173.2.2 259.8.1 8.3-2.4 10.7-10.4 10.6z"/></svg>