<svg xmlns="http://www.w3.org/2000/svg" width="1000" height="1000" viewBox="0 0 1000 1000"><path d="M853.6 843.4c-.3-86.6-.1-173.2-.2-259.8-.1-37.1-2.7-74.1-13-110.1-8.5-29.8-22-56.9-46.9-76.5-44.5-35-96.3-40.2-149.8-32.7-47.2 6.6-84.5 31.1-111.1 74.1 0-20-.5-37.7.2-55.3.3-8.3-2.4-10.5-10.4-10.4-41.2.4-82.3.2-123.5.2-10.4 0-10.4.1-10.4 10.9v458.7c0 11.2 0 11.3 11 11.3 43 .1 86.1-.1 129.1.2 7.9.1 10.4-2 10.4-10.3-.4-76.7-.4-153.4 0-230.1.1-15.7 1.5-31.5 4.1-47 3.5-21.7 11.2-42 29.7-55.9 20.7-15.6 44.6-17.8 69.4-14.4 28.6 3.8 46 21.3 52.5 48.1 4.5 18.4 6.8 37.3 7 56.2.7 80.8.3 161.5.3 242.2 0 10.8.3 11.1 10.5 11.1 43.6 0 87.1-.2 130.7.1 8 .1 10.5-2.3 10.4-10.6zM287.8 372.9c-43.3.2-86.6.1-129.9.1-11 0-11 0-11 11.2v457c0 12.4.1 12.6 12.8 12.6 42.8.1 85.5-.1 128.3.2 8.1 0 10.5-2.5 10.5-10.6-.2-153.4-.2-306.8 0-460.2 0-8.3-2.9-10.4-10.7-10.3zm-64.4-236.3c-49.2-.1-88 37.7-88.1 86.7s38.3 87.6 87.1 87.6c48.2 0 87.1-38.3 87.2-85.8.1-49.4-37-88.4-86.2-88.5z"/></svg>