<?xml version="1.0" encoding="utf-8"?>
<!-- Generator: Adobe Illustrator 21.1.0, SVG Export Plug-In . SVG Version: 6.00 Build 0)  -->
<svg version="1.1" id="Layer_1" xmlns="http://www.w3.org/2000/svg" xmlns:xlink="http://www.w3.org/1999/xlink" x="0px" y="0px"
	 viewBox="0 0 122.7 40.9" style="enable-background:new 0 0 122.7 40.9;" xml:space="preserve">
<style type="text/css">
	.st0{fill:#EF7158;}
	.st1{fill:#FFFFFF;}
</style>
<rect x="27.4" y="33.3" class="st0" width="11.8" height="4.3"/>
<g>
	<g>
		<path class="st1" d="M25,37.6h-4.4V23.7l-2.5,13.9h-2.7L13,23.7v13.9H8.7v-21h6.6l1.6,9.2l1.6-9.2H25V37.6z"/>
		<path class="st1" d="M45.7,37.6h-4.5v-21h4.5V37.6z"/>
		<path class="st1" d="M60.6,37.6h-5.1l-3-11.4v11.4h-4.4v-21h5l3,11.2V16.6h4.5V37.6z"/>
		<path class="st1" d="M71,37.6h-4.5V20.3h-4v-3.7H75v3.7h-4V37.6z"/>
		<path class="st1" d="M84.2,37.6h-4.3v-8.9l-3.8-12.1h4.5l1.5,6.6l1.5-6.6h4.6l-3.9,12.1V37.6z"/>
		<path class="st1" d="M113,24.9v3.7h-4.7v5.2h5.8v3.7h-10.3v-21h9.7v3.7h-5.3v4.6H113z"/>
	</g>
	<g>
		<path class="st1" d="M39.2,25.3v0.8c0,1.5-0.4,2.9-1.3,3.7c-1.1,1.1-2.7,1.7-4.6,1.7c-2.6,0-4.4-1-5.2-3c-0.4-1-0.6-2.2-0.6-4.1
			V22c0-1.6,0.5-3.1,1.4-4.1c1.1-1.1,2.7-1.7,4.4-1.7c3.5,0,6,2.1,6,5.1v1.3h-4.5V22c0-1.6-0.4-2.3-1.4-2.3c-0.6,0-1.1,0.4-1.3,1.1
			c0,0.2,0,0.2-0.1,2.1v1.6c0,2.8,0.2,3.4,1.5,3.4c1,0,1.3-0.5,1.3-2.3v-0.4H39.2z"/>
	</g>
	<path class="st1" d="M38.8,14h-4.1L32,9.8l-1,1.1V14h-3.3v-11H31v3.6l3.1-3.6h4.3l-4.1,4.3L38.8,14z"/>
	<path class="st1" d="M41.8,10.8c0.1,0.8,0.7,1.3,1.6,1.3c0.5,0,0.9-0.2,1.1-0.5h3c-0.4,1.5-2.1,2.7-4.2,2.7c-2.7,0-4.5-1.7-4.5-4.2
		c0-2.4,1.9-4.2,4.5-4.2c1.8,0,3.3,0.9,4,2.4c0.3,0.7,0.4,1.4,0.4,2.5H41.8z M44.5,9.1c-0.1-0.8-0.6-1.3-1.4-1.3
		c-0.8,0-1.3,0.5-1.4,1.3H44.5z"/>
	<path class="st1" d="M50.7,14l-2.7-8h3l1,3.3c0.1,0.5,0.3,0.9,0.3,1.3c0.1-0.4,0.2-0.8,0.3-1.3l1-3.3h3.1l-2.7,8H50.7z"/>
	<path class="st1" d="M60.8,5.2h-3.1V3.1h3.1V5.2z M60.8,14h-3.1v-8h3.1V14z"/>
	<path class="st1" d="M65.5,6.1V7c0.7-0.8,1.4-1.2,2.4-1.2c0.9,0,1.6,0.3,2.1,0.8c0.6,0.6,0.9,1.3,0.9,2.4V14h-3.1V9.7
		c0-0.8-0.4-1.2-1-1.2c-0.7,0-1.1,0.4-1.1,1.2V14h-3.1v-8H65.5z"/>
	<path class="st1" d="M101.3,37.6l0-6.5c-0.2-2.6-0.8-3.6-2.2-4.3c0.8-0.3,1.2-0.6,1.5-1.1c0.5-0.7,0.8-2,0.8-3.7
		c0-2.2-0.6-3.8-1.7-4.6c-0.7-0.5-1.7-0.7-3.1-0.7h-6.8v21h4.4v-8.8c0.2-0.1,0.3-0.1,0.5-0.1c1.3,0,1.9,0.4,2.1,1.4
		c0,0.1,0.1,1.5,0.1,1.6v5.9H101.3z M95,25.4h-0.8v-5.3h1.1c1.2,0,1.6,0.6,1.6,2.5C96.9,24.8,96.5,25.4,95,25.4z"/>
</g>
</svg>
