<?xml version="1.0" standalone="no"?>
<!DOCTYPE svg PUBLIC "-//W3C//DTD SVG 20010904//EN"
 "http://www.w3.org/TR/2001/REC-SVG-20010904/DTD/svg10.dtd">
<svg version="1.0" xmlns="http://www.w3.org/2000/svg"
 width="132.000000pt" height="132.000000pt" viewBox="0 0 132.000000 132.000000"
 preserveAspectRatio="xMidYMid meet">
<metadata>
Created by potrace 1.11, written by Peter Selinger 2001-2013
</metadata>
<g transform="translate(0.000000,132.000000) scale(0.100000,-0.100000)"
fill="#000000" stroke="none">
<path d="M89 1260 c0 -75 0 -1064 0 -1170 l1 -85 570 0 570 0 1 30 c7 240 2
1275 -6 1276 -5 1 -263 2 -572 3 l-563 1 -1 -55z m909 -99 c-12 -15 -310 -364
-330 -386 -6 -6 -14 -3 -23 9 -8 11 -27 33 -42 50 -15 17 -55 63 -87 101 -33
39 -63 72 -66 75 -3 3 -27 32 -55 65 -27 33 -52 62 -55 65 -40 38 -47 37 320
37 320 0 349 -1 338 -16z m-637 -258 c73 -87 136 -160 139 -163 8 -8 122 -140
155 -180 17 -21 98 -115 180 -211 83 -96 156 -181 163 -190 11 -15 -20 -16
-380 -15 l-393 1 0 457 c0 252 0 458 1 458 1 0 61 -71 135 -157z m734 -249 c0
-211 -2 -383 -6 -382 -6 3 -56 60 -144 163 -100 118 -128 150 -134 155 -4 3
-19 20 -33 39 l-26 35 71 81 c105 118 171 195 218 253 24 29 45 49 48 46 3 -3
6 -178 6 -390z"/>
</g>
</svg>
