<svg xmlns="http://www.w3.org/2000/svg"><symbol id="behance" viewBox="0 0 1000 1000"><path d="M394.1 743c27.2-6.3 52.5-16.7 74.1-34.9 18-14.9 31.1-34.8 37.7-57.2 7.6-25.7 8.7-52.9 3.2-79.2-7.8-38.5-29.5-66.6-64.4-84.3-7.3-3.8-15.1-6.6-22.8-9.8l7.2-3.7c11.2-5.7 21.4-13.1 30.3-22 15.9-16.2 25.2-35.6 28.3-58 2.8-19.4 2-39.2-2.4-58.3-5.4-22.9-17.4-41.5-36.3-55.6-14.5-10.8-31-17.5-48.4-22-23.8-6.2-48-8-72.4-8H94.1v500h238.1c20.8.1 41.6-2.3 61.9-7zM204.2 335.2h101c10.4-.1 21.9 0 31 1.8 9.1 1.8 17.7 4.8 25.4 10.1 10.3 7 16.5 16.9 19.2 29 2.7 11.6 2.5 23.6-.6 35.1-5.1 18.7-17.8 30.2-35.8 36.3-9.8 3.4-20 4.5-30.3 4.5H204.2V335.2zm-.1 329.4V527.1h118.3c13.1 0 26 1 38.4 5.3 22 7.7 35.3 23 39.9 45.7 3 15 2.9 31-1.9 44.8s-14.2 23.8-27 30.7c-16 8.5-33.2 11-51 11H204.1zm439.8 42.7c22.4 14 46.9 21.7 72.9 25.5 25.2 3.7 50.9 2.5 75.7-3.4 28.9-6.9 53.8-20.8 73.4-43.5 14.2-16.5 24-35.6 31.2-56.1l2.4-7h-3.7c-23.8 0-47.5.1-71.2-.1-4 0-5.9 1-8.1 4.7-10.9 18.6-27.3 30.4-48 36-17.2 4.7-34.6 3.7-51.8-.9-18.6-5-32.9-15.8-41.9-33.2-6.1-11.8-8.9-24.3-9.8-37.4-.2-3.4 0-6.9 0-10.6h240.3c.1-1.1.2-1.7.2-2.3 1.1-20.8-.3-41.7-4.4-62.1-5.4-27-15-52.3-31.3-74.7-16.5-23-39.6-40.3-66.3-49.6-14.6-5.1-29.8-8.2-45.2-9.1-22.2-1.4-44 0-65.5 5.6-42.1 11-73.5 35.9-94.8 73.7-13.8 24.6-22.1 51.9-24.5 80-3.1 34.2.8 67.5 14.4 99.3 11.7 27.6 30.6 49.3 56 65.2zm22.8-197.6c5.1-25.6 20-43.1 44-52.8 9.7-4 18.8-4.7 30.5-4.7s23 1.7 33.8 6.3c11 4.7 19.1 12.5 25.3 22.5 7.9 12.8 11.9 26.8 13.3 41.6 0 .3-.1.6-.2.9h-149c.7-4.7 1.4-9.3 2.3-13.8zM645.9 296h186.6v45.3H645.9z"/></symbol><symbol id="instagram" viewBox="0 0 1000 1000"><path d="M250.6 907h498.8c86.5 0 156.9-70.2 156.9-156.4V426.9h-187c14.8 31.3 22.5 65.5 22.5 100.2 0 130.1-106.2 235.9-236.7 235.9S268.4 657.2 268.4 527.1c0-34.7 7.7-68.9 22.5-100.2H93.7v323.7c0 86.2 70.4 156.3 156.9 156.4z"/><path d="M406.8 527.1c0 54 44.1 97.9 98.3 97.9s98.3-43.9 98.3-97.9-44.1-97.9-98.3-97.9c-54.2 0-98.3 43.9-98.3 97.9zM642.1 335h264.2v-85.5c0-86.3-70.4-156.4-156.9-156.4L250.6 93c-86.5 0-156.9 70.2-156.9 156.4V335h274.5c82-58.2 191.9-58.2 273.9 0zM693 176.5c.1-15.3 12.4-27.6 27.7-27.6h85.5c15.3 0 27.6 12.3 27.7 27.6v85.2c-.1 15.3-12.4 27.6-27.7 27.6h-85.5c-15.2 0-27.6-12.3-27.7-27.5v-85.3z"/></symbol><symbol id="linkedin" viewBox="0 0 1000 1000"><path d="M853.6 843.4c-.3-86.6-.1-173.2-.2-259.8-.1-37.1-2.7-74.1-13-110.1-8.5-29.8-22-56.9-46.9-76.5-44.5-35-96.3-40.2-149.8-32.7-47.2 6.6-84.5 31.1-111.1 74.1 0-20-.5-37.7.2-55.3.3-8.3-2.4-10.5-10.4-10.4-41.2.4-82.3.2-123.5.2-10.4 0-10.4.1-10.4 10.9v458.7c0 11.2 0 11.3 11 11.3 43 .1 86.1-.1 129.1.2 7.9.1 10.4-2 10.4-10.3-.4-76.7-.4-153.4 0-230.1.1-15.7 1.5-31.5 4.1-47 3.5-21.7 11.2-42 29.7-55.9 20.7-15.6 44.6-17.8 69.4-14.4 28.6 3.8 46 21.3 52.5 48.1 4.5 18.4 6.8 37.3 7 56.2.7 80.8.3 161.5.3 242.2 0 10.8.3 11.1 10.5 11.1 43.6 0 87.1-.2 130.7.1 8 .1 10.5-2.3 10.4-10.6zM287.8 372.9c-43.3.2-86.6.1-129.9.1-11 0-11 0-11 11.2v457c0 12.4.1 12.6 12.8 12.6 42.8.1 85.5-.1 128.3.2 8.1 0 10.5-2.5 10.5-10.6-.2-153.4-.2-306.8 0-460.2 0-8.3-2.9-10.4-10.7-10.3zm-64.4-236.3c-49.2-.1-88 37.7-88.1 86.7s38.3 87.6 87.1 87.6c48.2 0 87.1-38.3 87.2-85.8.1-49.4-37-88.4-86.2-88.5z"/></symbol></svg>