<svg xmlns="http://www.w3.org/2000/svg"><symbol id="behance" viewBox="0 0 1000 1000"><path d="M360.8 532.4c-12.4-4.3-25.3-5.3-38.4-5.3H204.1v137.5h116.7c17.8 0 35-2.5 51-11 12.8-6.9 22.2-16.9 27-30.7s4.9-29.8 1.9-44.8c-4.6-22.7-17.9-38-39.9-45.7z"/><path d="M0 0v1000h1000V0zm645.9 296h186.6v45.3H645.9zm-140 354.9a117.2 117.2 0 0 1-37.7 57.2c-21.6 18.2-46.9 28.6-74.1 34.9a271.1 271.1 0 0 1-61.9 7H94.1V250h234.1c24.4 0 48.6 1.8 72.4 8 17.4 4.5 33.9 11.2 48.4 22 18.9 14.1 30.9 32.7 36.3 55.6a157.6 157.6 0 0 1 2.4 58.3c-3.1 22.4-12.4 41.8-28.3 58a120.5 120.5 0 0 1-30.3 22l-7.2 3.7c7.7 3.2 15.5 6 22.8 9.8 34.9 17.7 56.6 45.8 64.4 84.3a161.1 161.1 0 0 1-3.2 79.2zM905.5 579c0 .6-.1 1.2-.2 2.3H665c0 3.7-.2 7.2 0 10.6.9 13.1 3.7 25.6 9.8 37.4 9 17.4 23.3 28.2 41.9 33.2 17.2 4.6 34.6 5.6 51.8.9 20.7-5.6 37.1-17.4 48-36 2.2-3.7 4.1-4.7 8.1-4.7 23.7.2 47.4.1 71.2.1h3.7l-2.4 7c-7.2 20.5-17 39.6-31.2 56.1-19.6 22.7-44.5 36.6-73.4 43.5a201.4 201.4 0 0 1-75.7 3.4c-26-3.8-50.5-11.5-72.9-25.5-25.4-15.9-44.3-37.6-56-65.2-13.6-31.8-17.5-65.1-14.4-99.3a197.4 197.4 0 0 1 24.5-80c21.3-37.8 52.7-62.7 94.8-73.7 21.5-5.6 43.3-7 65.5-5.6a166.7 166.7 0 0 1 45.2 9.1 137.1 137.1 0 0 1 66.3 49.6c16.3 22.4 25.9 47.7 31.3 74.7a249.8 249.8 0 0 1 4.4 62.1z"/><path d="M314.1 452c10.3 0 20.5-1.1 30.3-4.5 18-6.1 30.7-17.6 35.8-36.3a71.9 71.9 0 0 0 .6-35.1c-2.7-12.1-8.9-22-19.2-29-7.7-5.3-16.3-8.3-25.4-10.1s-20.6-1.9-31-1.8h-101V452h110zm460.9 6.5c-10.8-4.6-22.1-6.3-33.8-6.3s-20.8.7-30.5 4.7c-24 9.7-38.9 27.2-44 52.8-.9 4.5-1.6 9.1-2.3 13.8h149a4 4 0 0 0 .2-.9c-1.4-14.8-5.4-28.8-13.3-41.6-6.2-10-14.3-17.8-25.3-22.5z"/></symbol><symbol id="instagram" viewBox="0 0 1000 1000"><path d="M720.7 289.3h85.5a27.7 27.7 0 0 0 27.7-27.6v-85.2a27.7 27.7 0 0 0-27.7-27.6h-85.5a27.7 27.7 0 0 0-27.7 27.6v85.3a27.7 27.7 0 0 0 27.7 27.5z"/><path d="M0 0v1000h1000V0zm93.7 750.6V426.9h197.2a233.8 233.8 0 0 0-22.5 100.2c0 130.1 106.2 235.9 236.7 235.9s236.7-105.8 236.7-235.9a233.8 233.8 0 0 0-22.5-100.2h187v323.7c0 86.2-70.4 156.4-156.9 156.4H250.6c-86.5-.1-156.9-70.2-156.9-156.4zM749.4 93.1c86.5 0 156.9 70.1 156.9 156.4V335H642.1a236.5 236.5 0 0 0-273.9 0H93.7v-85.6C93.7 163.2 164.1 93 250.6 93zm-146 434c0 54-44.1 97.9-98.3 97.9s-98.3-43.9-98.3-97.9c0-54 44.1-97.9 98.3-97.9s98.3 43.9 98.3 97.9z"/></symbol><symbol id="linkedin" viewBox="0 0 1000 1000"><path d="M0 0v1000h1000V0zm298.5 843.4c0 8.1-2.4 10.6-10.5 10.6-42.8-.3-85.5-.1-128.3-.2-12.7 0-12.8-.2-12.8-12.6v-457c0-11.2 0-11.2 11-11.2 43.3 0 86.6.1 129.9-.1 7.8-.1 10.7 2 10.7 10.3q-.3 230.1 0 460.2zm-76.1-532.5c-48.8 0-87.2-38.6-87.1-87.6s38.9-86.8 88.1-86.7 86.3 39.1 86.2 88.5c-.1 47.5-39 85.8-87.2 85.8zM843.2 854c-43.6-.3-87.1-.1-130.7-.1-10.2 0-10.5-.3-10.5-11.1 0-80.7.4-161.4-.3-242.2a248.5 248.5 0 0 0-7-56.2c-6.5-26.8-23.9-44.3-52.5-48.1-24.8-3.4-48.7-1.2-69.4 14.4-18.5 13.9-26.2 34.2-29.7 55.9a303.7 303.7 0 0 0-4.1 47q-.6 115.1 0 230.1c0 8.3-2.5 10.4-10.4 10.3-43-.3-86.1-.1-129.1-.2-11 0-11-.1-11-11.3V383.8c0-10.8 0-10.9 10.4-10.9 41.2 0 82.3.2 123.5-.2 8-.1 10.7 2.1 10.4 10.4-.7 17.6-.2 35.3-.2 55.3 26.6-43 63.9-67.5 111.1-74.1 53.5-7.5 105.3-2.3 149.8 32.7 24.9 19.6 38.4 46.7 46.9 76.5 10.3 36 12.9 73 13 110.1.1 86.6-.1 173.2.2 259.8.1 8.3-2.4 10.7-10.4 10.6z"/></symbol></svg>